<svg
   xmlns:dc="http://purl.org/dc/elements/1.1/"
   xmlns:cc="http://creativecommons.org/ns#"
   xmlns:rdf="http://www.w3.org/1999/02/22-rdf-syntax-ns#"
   xmlns:svg="http://www.w3.org/2000/svg"
   xmlns="http://www.w3.org/2000/svg"
   viewBox="0 0 5334.6665 5334.6665"
   height="64"
   width="64"
   xml:space="preserve"
   version="1.1"><metadata
     id="metadata8"><rdf:RDF><cc:Work
         rdf:about=""><dc:format>logo</dc:format><dc:type
           rdf:resource="http://purl.org/dc/dcmitype/StillImage" /></cc:Work></rdf:RDF></metadata><defs
     id="defs6" /><g
     transform="matrix(1.3333333,0,0,-1.3333333,0,5334.6667)"
     id="g10"><g
       transform="scale(0.1)"
       id="g12"><g
         transform="scale(2.45429)"
         id="g14"><path
           id="path16"
           style="fill:#ffffff;fill-opacity:1;fill-rule:nonzero;stroke:none"
           d="M 16300,2.03725 H 2.03725 V 16300 H 16300 V 2.03725" /></g><g
         transform="scale(2.45429)"
         id="g18"><path
           id="path20"
           style="fill:none;stroke:#211d1d;stroke-width:4.07449007;stroke-linecap:butt;stroke-linejoin:miter;stroke-miterlimit:10;stroke-dasharray:none;stroke-opacity:1"
           d="M 16300,2.03725 H 2.03725 V 16300 H 16300 Z" /></g><g
         transform="scale(1.29685)"
         id="g22"><path
           id="path24"
           style="fill:#100f0d;fill-opacity:1;fill-rule:evenodd;stroke:none"
           d="m 12656.3,14856.7 c 0,0 -809.6,-387.1 -915.2,28.2 -146,553.3 -79.7,992.7 -457.6,1415.1 93.4,-669.6 -141,-1475.4 211.2,-2069.9 0,0 408.3,-42.2 661.8,-260.4 0,0 218.2,697 499.8,887" /></g><g
         transform="scale(1.83794)"
         id="g26"><path
           id="path28"
           style="fill:#100f0d;fill-opacity:1;fill-rule:evenodd;stroke:none"
           d="m 9854.27,15902.5 c 0,0 536.43,129.2 745.13,-129.1 0,0 114.3,-114.3 283.2,-144 168.8,29.7 283.2,144 283.2,144 208.6,258.3 745.1,129.1 745.1,129.1 -506.6,397.5 -1028.3,99.4 -1028.3,99.4 0,0 -521.6,298.1 -1028.33,-99.4" /></g><g
         transform="scale(1.53125)"
         id="g30"><path
           id="path32"
           style="fill:#100f0d;fill-opacity:1;fill-rule:evenodd;stroke:none"
           d="m 14415.9,15736.7 c 0,0 357.7,405.5 1526.4,345.8 0,0 214.6,0 357.7,155.1 0,0 -11.9,-1019.7 -894.4,-1174.7 0,0 455.9,383.1 465.1,733.4 0,0 -1031.5,35.8 -1371.4,-560.5 0,0 274.3,-196.7 590.3,-184.8 0,0 -354.7,-121.6 -602.2,-125.2 -42.4,-260.3 -17.8,-360.7 53.6,-596.3 -287.6,135.4 -326.3,469.3 -292.1,763.2 0,0 -643.9,226.6 -477.1,989.8 0,0 -35.7,-655.9 644.1,-345.8" /></g><g
         transform="scale(1.56767)"
         id="g34"><path
           id="path36"
           style="fill:#100f0d;fill-opacity:1;fill-rule:evenodd;stroke:none"
           d="m 15047.7,12290.1 c 0,0 669.8,-320.3 757.1,23.3 120.8,457.7 65.9,821.2 378.6,1170.6 -77.3,-553.9 116.6,-1220.5 -174.7,-1712.2 0,0 -337.8,-35 -547.5,-215.5 0,0 -180.5,576.6 -413.5,733.8" /></g><g
         transform="scale(1.81431)"
         id="g38"><path
           id="path40"
           style="fill:#100f0d;fill-opacity:1;fill-rule:evenodd;stroke:none"
           d="m 9997.43,15207.5 c -56.61,-37.6 -1060.08,329.2 -628.34,710.9 431.79,381.6 960.41,-490.1 628.34,-710.9" /></g><g
         transform="scale(1.6685)"
         id="g42"><path
           id="path44"
           style="fill:#100f0d;fill-opacity:1;fill-rule:evenodd;stroke:none"
           d="m 11326.9,15621.3 c -35.2,-23.4 -658.5,204.6 -390.3,441.6 268.2,237.1 596.6,-304.4 390.3,-441.6" /></g><g
         transform="scale(1.68379)"
         id="g46"><path
           id="path48"
           style="fill:#100f0d;fill-opacity:1;fill-rule:evenodd;stroke:none"
           d="m 10184.8,15455.8 c -43.8,-29.1 -819.27,254.4 -485.56,549.3 333.56,294.9 742.16,-378.7 485.56,-549.3" /></g><g
         transform="scale(1.52871)"
         id="g50"><path
           id="path52"
           style="fill:#100f0d;fill-opacity:1;fill-rule:evenodd;stroke:none"
           d="m 9306.14,15601.6 c -36.24,-24 -677.7,210.5 -401.71,454.5 276.05,243.9 613.91,-313.3 401.71,-454.5" /></g><g
         transform="scale(1.36137)"
         id="g54"><path
           id="path56"
           style="fill:#100f0d;fill-opacity:1;fill-rule:evenodd;stroke:none"
           d="m 11870.9,15515.8 c -40.6,-27 -761,236.3 -451,510.2 309.9,274 689.4,-351.7 451,-510.2" /></g><g
         transform="scale(1.81431)"
         id="g58"><path
           id="path60"
           style="fill:#100f0d;fill-opacity:1;fill-rule:evenodd;stroke:none"
           d="m 12051.3,15207.5 c 56.6,-37.6 1060.2,329.2 628.4,710.9 -431.8,381.6 -960.4,-490.1 -628.4,-710.9" /></g><g
         transform="scale(1.6685)"
         id="g62"><path
           id="path64"
           style="fill:#100f0d;fill-opacity:1;fill-rule:evenodd;stroke:none"
           d="m 12648.6,15621.3 c 35.2,-23.4 658.6,204.6 390.3,441.6 -268.2,237.1 -596.5,-304.4 -390.3,-441.6" /></g><g
         transform="scale(1.68379)"
         id="g66"><path
           id="path68"
           style="fill:#100f0d;fill-opacity:1;fill-rule:evenodd;stroke:none"
           d="m 13573.1,15455.8 c 43.7,-29.1 819.2,254.4 485.5,549.3 -333.6,294.9 -742,-378.7 -485.5,-549.3" /></g><g
         transform="scale(1.64496)"
         id="g70"><path
           id="path72"
           style="fill:#100f0d;fill-opacity:1;fill-rule:evenodd;stroke:none"
           d="m 15670.3,14499.1 c 33.6,-22.4 629.7,195.6 373.3,422.3 -256.6,226.7 -570.6,-291.1 -373.3,-422.3" /></g><g
         transform="scale(1.52628)"
         id="g74"><path
           id="path76"
           style="fill:#100f0d;fill-opacity:1;fill-rule:evenodd;stroke:none"
           d="m 15621.3,13839.4 c 36.2,-24.1 678.7,210.8 402.3,455.1 -276.4,244.4 -615,-313.7 -402.3,-455.1" /></g><g
         transform="scale(1.18818)"
         id="g78"><path
           id="path80"
           style="fill:#c9c9c7;fill-opacity:1;fill-rule:evenodd;stroke:none"
           d="m 14175,16138.7 c 0,0 -38.4,-1168 722.3,-1406.3 -572.6,385.1 -555,1136 -509.9,1489.7 -119.9,-35.6 -212.4,-83.4 -212.4,-83.4 z m 1066.9,127.4 c 19.3,-56 38.3,-113.7 57.3,-173.1 -4.7,66.9 -5.6,135.9 -2.3,207 -20,-10 -38.3,-21.5 -55,-33.9" /></g><g
         transform="scale(1.52539)"
         id="g82"><path
           id="path84"
           style="fill:#100f0d;fill-opacity:1;fill-rule:evenodd;stroke:none"
           d="m 11753.7,15797.2 c 0,0 -359.1,407 -1532.3,347.2 0,0 -215.4,0 -359.05,155.6 0,0 11.93,-1023.5 897.75,-1179.2 0,0 -457.7,384.6 -466.8,736.2 0,0 1035.4,36 1376.7,-562.6 0,0 -275.4,-197.5 -592.6,-185.5 0,0 356,-122.1 604.5,-125.7 42.6,-261.4 17.8,-362.1 -53.8,-598.6 288.7,135.9 327.6,471.1 293.2,766.1 0,0 646.5,227.5 478.9,993.7 0,0 35.9,-658.5 -646.5,-347.2" /></g><g
         transform="scale(1.98077)"
         id="g86"><path
           id="path88"
           style="fill:#100f0d;fill-opacity:1;fill-rule:evenodd;stroke:none"
           d="m 7166.24,13525.1 c -64.57,331.9 73.75,719.1 73.75,719.1 285.75,-119.9 359.51,-626.9 359.51,-626.9 350.32,1226.1 -700.63,2184.9 -700.63,2184.9 396.41,-46.1 1334.22,54.9 1318.32,-1032.5 894.19,1133.9 1880.71,378 1880.71,378 0,0 986.5,755.9 1880.7,-378 -15.9,1087.4 921.9,986.4 1318.3,1032.5 0,0 -1050.9,-958.8 -700.7,-2184.9 0,0 73.8,507 359.6,626.9 0,0 138.3,-387.2 73.7,-719.1 0,0 995.7,-894.2 848.2,-2489.1 0,0 -728.4,755.9 -1180,73.8 0,0 221.2,82.9 442.5,-138.3 -318.2,-525 119.2,-1302.56 -405.6,-1926.76 0,0 -350.4,64.52 -553.2,-110.61 0,0 -110.6,516.21 -488.6,746.73 0,0 23,-700.64 -433.3,-843.56 0,0 350.3,4.64 530.1,244.35 0,0 78.4,-534.69 -636.1,-534.69 0,0 290.4,-179.83 659.2,-32.31 0,0 -355,-276.56 -917.3,-115.21 0,0 64.5,-202.85 364.1,-239.7 0,0 -1258.4,-119.86 -1032.5,474.76 0,0 829.7,354.91 792.8,1143.14 0,0 -124.4,-391.82 -378,-377.99 0,0 -479.4,32.26 -543.9,-138.28 -64.6,170.54 -543.96,138.28 -543.96,138.28 -253.54,-13.83 -378.04,377.99 -378.04,377.99 -36.8,-788.23 792.88,-1143.14 792.88,-1143.14 225.82,-594.62 -1032.53,-474.76 -1032.53,-474.76 299.63,36.85 364.1,239.7 364.1,239.7 -562.36,-161.35 -917.27,115.21 -917.27,115.21 368.8,-147.52 659.19,32.31 659.19,32.31 -714.47,0 -636.12,534.69 -636.12,534.69 179.78,-239.71 530.1,-244.35 530.1,-244.35 -456.34,142.92 -433.31,843.56 -433.31,843.56 -377.99,-230.52 -488.6,-746.73 -488.6,-746.73 -202.8,175.13 -553.07,110.61 -553.07,110.61 -524.89,624.2 -87.49,1401.76 -405.65,1926.76 221.28,221.2 442.51,138.3 442.51,138.3 -451.75,682.1 -1180.05,-73.8 -1180.05,-73.8 -147.52,1594.9 848.16,2489.1 848.16,2489.1 z m 2931.66,1963.6 c -534.67,396.5 -1594.96,175.2 -1594.96,175.2 -1041.72,636.1 -2138.76,258.1 -2138.76,258.1 -285.8,-1078.6 267.32,-2350.8 267.32,-2350.8 -691.35,-709.8 -709.83,-1576.4 -709.83,-1576.4 -41.45,-225.9 -9.19,-1410.5 -9.19,-1410.5 36.91,-322.7 -142.82,-511.7 -142.82,-511.7 433.27,46.1 506.97,267.4 506.97,267.4 285.8,-64.6 55.39,-1327.52 55.39,-1327.52 0,0 340.97,124.45 442.4,364.15 0,0 188.97,-834.32 908.03,-1258.39 0,0 -92.19,709.87 221.27,451.74 0,0 266.37,-697.61 949.53,-672.97 0,0 221.38,-894.24 1244.65,-986.43 1023.3,92.19 1244.6,986.43 1244.6,986.43 683.1,-24.64 949.5,672.97 949.5,672.97 313.5,258.13 221.3,-451.74 221.3,-451.74 719,424.07 908.1,1258.39 908.1,1258.39 101.4,-239.7 442.4,-364.15 442.4,-364.15 0,0 -230.4,1262.92 55.2,1327.52 0,0 73.8,-221.3 507.1,-267.4 0,0 -179.8,189 -142.9,511.7 0,0 32.4,1184.6 -9.1,1410.5 0,0 -18.4,866.6 -709.9,1576.4 0,0 553.2,1272.2 267.4,2350.8 0,0 -1097,378 -2138.8,-258.1 0,0 -1060.2,221.3 -1594.9,-175.2 z m 0,-8232.4 c -474.75,92.19 -571.63,447.1 -571.63,447.1 -59.93,-161.35 13.83,-331.89 13.83,-331.89 -493.24,262.77 -262.77,507.02 -262.77,507.02 474.76,41.5 820.57,281.21 820.57,281.21 0,0 345.7,-239.71 820.5,-281.21 0,0 230.5,-244.25 -262.7,-507.02 0,0 73.7,170.54 13.8,331.89 0,0 -96.9,-354.91 -571.6,-447.1" /></g><g
         transform="scale(1.42371)"
         id="g98"><path
           id="path100"
           style="fill:#c9c9c7;fill-opacity:1;fill-rule:evenodd;stroke:none"
           d="m 16268,13468.8 c 0,0 32,-974.8 -602.9,-1173.6 478,321.4 463.2,948.1 425.7,1243.3 100,-29.7 177.2,-69.7 177.2,-69.7 z m -890.5,106.3 c -16,-46.7 -31.9,-94.9 -47.7,-144.4 3.9,55.8 4.6,113.4 1.9,172.7 16.7,-8.4 31.9,-17.9 45.8,-28.3" /></g></g></g></svg>